<svg width="16" height="16" viewBox="0 0 16 16" fill="none" xmlns="http://www.w3.org/2000/svg">
<path fill-rule="evenodd" clip-rule="evenodd" d="M4.80156 1.60001C4.58939 1.60001 4.38591 1.68429 4.23588 1.83432C4.08585 1.98435 4.00156 2.18783 4.00156 2.40001V3.20001H3.20156C2.77722 3.20001 2.37025 3.36858 2.07019 3.66864C1.77013 3.96869 1.60156 4.37566 1.60156 4.80001V12.8C1.60156 13.2244 1.77013 13.6313 2.07019 13.9314C2.37025 14.2314 2.77722 14.4 3.20156 14.4H12.8016C13.2259 14.4 13.6329 14.2314 13.9329 13.9314C14.233 13.6313 14.4016 13.2244 14.4016 12.8V4.80001C14.4016 4.37566 14.233 3.96869 13.9329 3.66864C13.6329 3.36858 13.2259 3.20001 12.8016 3.20001H12.0016V2.40001C12.0016 2.18783 11.9173 1.98435 11.7672 1.83432C11.6172 1.68429 11.4137 1.60001 11.2016 1.60001C10.9894 1.60001 10.7859 1.68429 10.6359 1.83432C10.4858 1.98435 10.4016 2.18783 10.4016 2.40001V3.20001H5.60156V2.40001C5.60156 2.18783 5.51728 1.98435 5.36725 1.83432C5.21722 1.68429 5.01374 1.60001 4.80156 1.60001ZM4.80156 5.60001C4.58939 5.60001 4.38591 5.68429 4.23588 5.83432C4.08585 5.98435 4.00156 6.18783 4.00156 6.40001C4.00156 6.61218 4.08585 6.81566 4.23588 6.96569C4.38591 7.11572 4.58939 7.20001 4.80156 7.20001H11.2016C11.4137 7.20001 11.6172 7.11572 11.7672 6.96569C11.9173 6.81566 12.0016 6.61218 12.0016 6.40001C12.0016 6.18783 11.9173 5.98435 11.7672 5.83432C11.6172 5.68429 11.4137 5.60001 11.2016 5.60001H4.80156Z" fill="#3D7C85"/>
</svg>
