<svg width="210" height="45" viewBox="0 0 210 45" fill="none" xmlns="http://www.w3.org/2000/svg">
<path d="M24.3429 38.0922C23.4852 24.0774 36.8783 22.0184 40.7379 11.3911C41.9254 8.13648 41.2327 3.12172 36.9113 0.796998C35.6907 0.298843 34.3712 0.0331603 32.9527 0.0331603C29.3571 -5.00716e-05 26.1902 1.82652 24.3429 4.61619C24.3429 4.61619 22.7265 9.99626 19.4607 15.8745C16.1949 21.7195 15.7661 26.1033 21.6049 34.8044C22.6935 36 23.6502 37.0959 24.3429 38.0922Z" fill="#EE2650"/>
<mask id="mask0_1042_7080" style="mask-type:luminance" maskUnits="userSpaceOnUse" x="17" y="0" width="25" height="39">
<path d="M24.3429 38.0922C23.4852 24.0774 36.8783 22.0184 40.7379 11.3911C41.9254 8.13648 41.2327 3.12172 36.9113 0.796998C35.6907 0.298843 34.3712 0.0331603 32.9527 0.0331603C29.3571 -5.00716e-05 26.1902 1.82652 24.3429 4.61619C24.3429 4.61619 22.7265 9.99626 19.4607 15.8745C16.1949 21.7195 15.7661 26.1033 21.6049 34.8044C22.6935 36 23.6502 37.0959 24.3429 38.0922Z" fill="white"/>
</mask>
<g mask="url(#mask0_1042_7080)">
<path d="M15.7656 0H41.892V38.0923H15.7656V0Z" fill="#EE2650"/>
</g>
<path fill-rule="evenodd" clip-rule="evenodd" d="M24.3429 4.61621C24.3429 4.61621 22.7265 9.99629 19.4607 15.8745C16.1949 21.7195 15.7661 26.1033 21.6049 34.8044C22.7265 36 23.6502 37.0959 24.3429 38.0922C20.3844 30.9852 22.4626 27.2657 23.2213 24.642C23.98 22.0184 26.5861 19.1623 27.4438 13.6162C28.3014 8.07009 24.3429 4.61621 24.3429 4.61621Z" fill="#3B1385"/>
<path fill-rule="evenodd" clip-rule="evenodd" d="M24.3089 35.8672C24.9357 23.845 37.0752 21.4539 40.7038 11.3911C41.8914 8.13653 41.1987 3.12176 36.8773 0.797041C35.6567 0.298886 34.3372 0.0332031 32.9187 0.0332031C31.6652 0.0332031 30.4446 0.265676 29.356 0.6642C29.422 0.6642 32.7208 0.0664134 33.8424 2.55719C34.964 5.08117 34.2052 7.33948 31.6652 9.6642C27.8056 13.1513 32.8527 12.5867 28.5973 17.8339C26.0902 20.9557 22.1977 26.0369 23.1213 33.0443C23.2533 34.2398 23.6821 35.1697 24.3089 35.8672Z" fill="#B32854"/>
<path fill-rule="evenodd" clip-rule="evenodd" d="M24.3412 38.0922C23.4835 24.0774 36.8766 22.0184 40.7362 11.3911C41.9237 8.13648 41.231 3.12172 36.9096 0.796997C36.9096 0.796997 40.6702 3.71951 38.9218 8.40216C37.1735 13.0848 33.5448 16.0738 29.8172 19.1623C26.0566 22.2509 18.9972 27.8634 24.3412 38.0922Z" fill="#A02641"/>
<path fill-rule="evenodd" clip-rule="evenodd" d="M24.3429 4.61621C24.3429 4.61621 22.7265 9.99629 19.4607 15.8745C16.1949 21.7195 15.7661 26.1033 21.6049 34.8044C22.7265 36 23.6502 37.0959 24.3429 38.0922C20.8792 32.4465 19.8895 28.0627 21.242 23.7786C22.5945 19.4944 25.6294 16.5387 26.3552 12.0885C27.0479 7.63835 24.3429 4.61621 24.3429 4.61621Z" fill="#EE2650"/>
<path d="M24.3754 15.1771C27.6411 9.3321 24.3424 4.61624 24.3424 4.61624C22.4621 1.82657 19.2952 0 15.6996 0C9.92668 0 5.27539 4.68266 5.27539 10.4945C5.27539 19.4613 15.6995 28.4613 21.5714 34.8044C15.7655 26.1033 21.1096 21.0554 24.3754 15.1771Z" fill="#EE2650"/>
<mask id="mask1_1042_7080" style="mask-type:luminance" maskUnits="userSpaceOnUse" x="5" y="0" width="21" height="35">
<path d="M24.3754 15.1771C27.6411 9.3321 24.3424 4.61624 24.3424 4.61624C22.4621 1.82657 19.2952 0 15.6996 0C9.92668 0 5.27539 4.68266 5.27539 10.4945C5.27539 19.4613 15.6995 28.4613 21.5714 34.8044C15.7655 26.1033 21.1096 21.0554 24.3754 15.1771Z" fill="white"/>
</mask>
<g mask="url(#mask1_1042_7080)">
<path d="M5.27539 0H27.6082V34.8044H5.27539V0Z" fill="#EE2650"/>
</g>
<path fill-rule="evenodd" clip-rule="evenodd" d="M9.39887 2.15869C6.8918 4.08489 5.27539 7.10703 5.27539 10.4945C5.27539 19.3616 15.5016 28.2952 21.4064 34.6052C14.3141 26.369 13.5883 19.3949 13.2255 15.2768C12.8626 11.1587 7.78247 10.9262 7.55155 7.90408C7.32064 4.91515 9.3329 2.25832 9.39887 2.15869Z" fill="#A02641"/>
<path fill-rule="evenodd" clip-rule="evenodd" d="M24.3741 15.1771C27.6399 9.3321 24.3411 4.61624 24.3411 4.61624C22.4608 1.82657 19.294 0 15.6983 0C14.7086 0 13.752 0.132841 12.8613 0.398524C18.2713 -0.0664206 20.6465 2.85609 20.3826 5.04797C20.1187 7.17343 16.523 8.70111 15.8632 10.7934C15.2365 12.8192 18.8321 13.7159 18.5682 17.5683C18.3043 21.4539 15.5663 26.369 20.6794 33.3432C16.391 25.5387 21.3062 20.7232 24.3741 15.1771Z" fill="#751D2C"/>
<path fill-rule="evenodd" clip-rule="evenodd" d="M24.3748 15.1771C27.6406 9.33212 24.3419 4.61625 24.3419 4.61625C23.0223 2.69005 21.109 1.2288 18.8659 0.498169C27.7066 5.24725 25.1665 12.0886 21.5049 18.4982C19.5916 21.8856 15.5011 26.9004 21.6039 34.8044C15.765 26.1033 21.109 21.0554 24.3748 15.1771Z" fill="#B32854"/>
<path d="M39.5167 9.33218C35.6901 19.9595 18.2725 22.085 24.3423 38.0923C28.6967 31.8488 43.4093 21.1551 43.4093 10.4945C43.4093 6.11078 40.7373 2.35801 36.9436 0.763916C40.3084 2.75654 40.7043 6.07757 39.5167 9.33218Z" fill="#EE2650"/>
<mask id="mask2_1042_7080" style="mask-type:luminance" maskUnits="userSpaceOnUse" x="23" y="0" width="21" height="39">
<path d="M39.5167 9.33218C35.6901 19.9595 18.2725 22.085 24.3423 38.0923C28.6967 31.8488 43.4093 21.1551 43.4093 10.4945C43.4093 6.11078 40.7373 2.35801 36.9436 0.763916C40.3084 2.75654 40.7043 6.07757 39.5167 9.33218Z" fill="white"/>
</mask>
<g mask="url(#mask2_1042_7080)">
<path d="M18.2734 0.797119H43.3772V38.0923H18.2734V0.797119Z" fill="#EE2650"/>
</g>
<path fill-rule="evenodd" clip-rule="evenodd" d="M39.2204 10.0959C34.833 20.0923 18.4051 22.4834 24.3429 38.0923C25.5964 36.2989 27.7406 34.107 30.1158 31.6495C26.916 27.0664 28.4004 23.0812 32.4579 19.4945C37.736 14.8118 39.2204 10.0959 39.2204 10.0959Z" fill="#A02641"/>
<path fill-rule="evenodd" clip-rule="evenodd" d="M32.9183 28.7601C38.0974 23.3136 43.3755 16.904 43.3755 10.5276C43.3755 6.14386 40.7035 2.39109 36.9099 0.796997C36.9099 0.796997 36.9428 0.830207 37.0418 0.863418C37.5696 1.19552 38.0314 1.52762 38.4273 1.92615C40.1097 3.45382 42.3528 6.5756 40.7364 11.3911C38.6252 17.6346 36.7779 24.1107 32.9183 28.7601ZM30.2793 31.4833L30.972 30.7859C30.6752 31.0516 30.4442 31.2841 30.2793 31.4833Z" fill="#751D2C"/>
<path fill-rule="evenodd" clip-rule="evenodd" d="M39.5167 9.33211C35.6901 19.9594 18.2725 22.0849 24.3423 38.0923C22.8578 29.2915 27.0803 25.2067 31.9295 20.7565C36.4488 16.6384 41.463 12.155 40.0445 5.01477C40.2754 6.37639 40.0445 7.87086 39.5167 9.33211Z" fill="#B32854"/>
<path fill-rule="evenodd" clip-rule="evenodd" d="M15.2707 45C23.1878 41.2804 24.0455 34.5055 20.12 28.0295C17.9098 24.4096 17.0851 24.31 16.6232 20.9225C16.3264 18.631 12.6317 21.2546 14.4461 25.2066C15.1718 26.834 16.1284 28.5609 15.4357 29.3579C14.512 30.4871 12.0709 29.2583 11.1143 28.6273C6.89184 25.7712 5.60531 24.0775 4.08787 21.4871C2.60342 18.9299 2.07561 16.9373 1.08598 16.6716C-0.563417 16.2399 0.129328 18.1993 0.228291 18.631C0.85506 21.4207 3.13122 27.4982 6.79287 30.3542C11.4112 34.0406 16.4583 37.0959 15.2707 45Z" fill="url(#paint0_linear_1042_7080)"/>
<path fill-rule="evenodd" clip-rule="evenodd" d="M8.77158 26.0037C8.63963 25.2066 8.57366 24.4428 8.57366 23.7454C8.57366 20.4575 7.45207 19.5941 6.79231 19.8266C6.2975 19.9926 6.42945 22.0184 6.59439 23.9778C7.15518 24.6753 7.84792 25.3063 8.77158 26.0037Z" fill="url(#paint1_linear_1042_7080)"/>
<path fill-rule="evenodd" clip-rule="evenodd" d="M6.29823 23.6789C6.1003 22.6826 5.93536 21.7195 5.90237 20.8892C5.77042 17.6014 4.64884 16.7712 3.98908 17.0368C3.62621 17.2029 3.6592 18.4649 3.79115 19.9594C3.98908 20.2915 4.18701 20.6568 4.41792 21.0221C5.0117 22.0184 5.5725 22.8819 6.29823 23.6789Z" fill="url(#paint2_linear_1042_7080)"/>
<path fill-rule="evenodd" clip-rule="evenodd" d="M10.9169 27.5977C10.851 27.0996 10.818 26.6346 10.818 26.2029C10.818 23.214 9.79535 22.4501 9.20157 22.6494C8.77273 22.8155 8.87169 24.5092 9.00364 26.2361C9.56444 26.6679 10.2242 27.0996 10.9169 27.5977Z" fill="url(#paint3_linear_1042_7080)"/>
<path fill-rule="evenodd" clip-rule="evenodd" d="M32.3254 44.4687C24.7712 40.0185 24.5073 33.2104 29.0266 27.1329C31.5337 23.7122 32.3914 23.7122 33.1501 20.3912C33.6779 18.1329 37.0756 21.0886 34.9314 24.8746C34.0737 26.4023 32.9522 28.0628 33.5459 28.9263C34.3706 30.1218 36.9107 29.1587 37.9003 28.5941C42.3537 26.1366 43.8052 24.5757 45.5535 22.1513C47.2689 19.7602 47.9946 17.8008 48.9842 17.6347C50.6666 17.3691 49.776 19.2288 49.677 19.6606C48.8193 22.3838 45.9824 28.2288 42.0898 30.7528C37.1416 33.9078 31.8636 36.4982 32.3254 44.4687Z" fill="url(#paint4_linear_1042_7080)"/>
<path fill-rule="evenodd" clip-rule="evenodd" d="M40.5059 26.1365C40.7038 25.3395 40.8357 24.5756 40.9017 23.9114C41.1986 20.6568 42.3862 19.893 43.0129 20.1919C43.4748 20.4243 43.1779 22.417 42.848 24.3432C42.2212 24.941 41.4625 25.5387 40.5059 26.1365Z" fill="url(#paint5_linear_1042_7080)"/>
<path fill-rule="evenodd" clip-rule="evenodd" d="M43.1797 24.0442C43.4766 23.0811 43.7075 22.118 43.8065 21.2878C44.2353 18.0332 45.4229 17.3025 46.0496 17.6347C46.4125 17.8339 46.2476 19.0959 45.9837 20.5904C45.7527 20.9225 45.5218 21.2546 45.2579 21.5867C44.5982 22.5166 43.9714 23.3136 43.1797 24.0442Z" fill="url(#paint6_linear_1042_7080)"/>
<path fill-rule="evenodd" clip-rule="evenodd" d="M38.1973 27.4981C38.2962 26.9999 38.3622 26.535 38.4282 26.1032C38.6921 23.1475 39.7807 22.4501 40.3415 22.7158C40.7373 22.9151 40.5064 24.6088 40.2095 26.3025C39.6487 26.701 38.956 27.0996 38.1973 27.4981Z" fill="url(#paint7_linear_1042_7080)"/>
<path d="M70.7769 20.8268H68.5744V14.6638H62.2813V20.9112H60V6.55895H62.2026V12.5531H68.4957V6.55895H70.6983V20.8268H70.7769ZM79.5086 21.0801C77.6207 21.0801 76.0474 20.4047 74.8675 19.0539C73.6875 17.7031 73.1369 16.0146 73.1369 13.8195C73.1369 11.54 73.6875 9.68269 74.8675 8.33188C76.0474 6.98108 77.6207 6.30569 79.666 6.30569C81.5539 6.30569 83.0485 6.98108 84.2285 8.33188C85.4084 9.68269 85.9591 11.3712 85.9591 13.5662C85.9591 15.9301 85.4084 17.7875 84.2285 19.1383C83.0485 20.4047 81.4752 21.0801 79.5086 21.0801ZM79.666 8.41632C78.4073 8.41632 77.4634 8.92286 76.6767 9.85154C75.8901 10.8646 75.4968 12.131 75.4968 13.7351C75.4968 15.3392 75.8901 16.6055 76.5981 17.6186C77.306 18.6318 78.3287 19.0539 79.5086 19.0539C80.7672 19.0539 81.7899 18.6318 82.4978 17.7031C83.2058 16.7744 83.5991 15.508 83.5991 13.8195C83.5991 12.131 83.2058 10.7802 82.4978 9.85154C81.8685 8.83844 80.9246 8.41632 79.666 8.41632ZM88.4763 20.8268V6.47453H92.7241C93.9828 6.47453 95.0054 6.81223 95.792 7.4032C96.5787 7.99418 96.8933 8.83843 96.8933 9.76711C96.8933 10.6114 96.6573 11.2868 96.264 11.8777C95.8707 12.4687 95.2414 12.8908 94.4547 13.1441C95.3987 13.2285 96.1067 13.6507 96.6573 14.2416C97.208 14.8326 97.444 15.6769 97.444 16.6055C97.444 17.8719 96.972 18.8006 96.1067 19.5604C95.2414 20.3203 94.0614 20.658 92.7241 20.658H88.4763V20.8268ZM90.6789 8.41632V12.4687H92.0948C92.8815 12.4687 93.4321 12.2999 93.9041 11.8777C94.3761 11.4556 94.5334 10.9491 94.5334 10.1892C94.5334 8.92286 93.7468 8.33188 92.2522 8.33188H90.6789V8.41632ZM90.6789 14.4105V18.9695H92.5668C93.3535 18.9695 94.0614 18.8006 94.4547 18.3785C94.9267 17.9563 95.1627 17.3654 95.1627 16.69C95.1627 15.1703 94.2188 14.4949 92.2522 14.4949H90.6789V14.4105ZM99.9612 20.8268V6.47453H102.164V12.2154H104.445C105.861 12.2154 106.962 12.5531 107.749 13.313C108.536 13.9884 108.929 15.0015 108.929 16.3523C108.929 17.7031 108.536 18.8006 107.67 19.6448C106.805 20.4891 105.704 20.8268 104.288 20.8268H99.9612ZM102.164 14.2416V18.9695H104.052C104.838 18.9695 105.468 18.8006 105.94 18.3785C106.412 17.9563 106.569 17.3654 106.569 16.6055C106.569 15.0859 105.704 14.3261 104.052 14.3261H102.164V14.2416ZM112.547 20.8268H110.345V6.47453H112.547V20.8268ZM127.179 20.8268H125.055V11.2868C125.055 10.4425 125.055 9.85154 125.134 9.42941H125.055C124.976 9.76711 124.819 10.0204 124.662 10.2737L118.29 20.8268H115.851V6.47453H117.975V15.5925C117.975 16.6056 117.975 17.2809 117.897 17.6186C118.054 17.3654 118.211 17.0277 118.369 16.7744L124.583 6.47453H127.1V20.8268H127.179ZM125.212 2C125.134 3.0131 124.74 3.77293 124.032 4.36391C123.403 4.95488 122.538 5.20816 121.515 5.20816C120.492 5.20816 119.627 4.95488 118.998 4.36391C118.369 3.77293 117.975 3.0131 117.897 2H119.706C119.784 3.18195 120.414 3.85735 121.515 3.85735C121.987 3.85735 122.459 3.68851 122.774 3.35081C123.088 3.01311 123.324 2.59098 123.403 2H125.212Z" fill="#171717"/>
<path d="M136.685 15.7241V20.9584H134.482V6.60617H138.494C139.989 6.60617 141.248 7.0283 142.034 7.78813C142.821 8.54796 143.293 9.64549 143.293 10.9963C143.293 12.3471 142.821 13.529 141.955 14.3733C141.09 15.2175 139.91 15.7241 138.416 15.7241H136.685ZM136.685 8.54795V13.7823H138.101C139.045 13.7823 139.753 13.529 140.304 13.1069C140.776 12.6004 141.012 12.0094 141.012 11.0807C141.012 9.3922 140.068 8.54795 138.258 8.54795H136.685ZM155.25 20.874H152.811L151.631 17.2437H146.361L145.181 20.874H142.742L147.777 6.52175H150.294L155.25 20.874ZM151.002 15.302L149.114 9.56105C149.035 9.3922 149.035 9.05451 148.957 8.63238C148.878 8.97008 148.878 9.30777 148.799 9.56105L146.99 15.302H151.002ZM166.105 20.2831C165.083 20.874 163.824 21.1273 162.329 21.1273C160.363 21.1273 158.868 20.4519 157.688 19.1855C156.508 17.9191 155.958 16.1462 155.958 14.0356C155.958 11.7561 156.587 9.89876 157.924 8.46353C159.262 7.02831 160.913 6.35291 162.88 6.35291C164.139 6.35291 165.24 6.52175 166.105 6.94388V9.30778C165.24 8.71681 164.217 8.46353 163.116 8.46353C161.7 8.46353 160.52 8.97007 159.576 9.98318C158.711 10.9963 158.239 12.2627 158.239 13.9512C158.239 15.5552 158.632 16.8216 159.498 17.7503C160.363 18.679 161.464 19.1855 162.801 19.1855C164.06 19.1855 165.161 18.8478 166.105 18.2568V20.2831ZM177.512 20.2831C176.489 20.874 175.23 21.1273 173.736 21.1273C171.769 21.1273 170.274 20.4519 169.094 19.1855C167.915 17.9191 167.364 16.1462 167.364 14.0356C167.364 11.7561 167.993 9.89876 169.33 8.46353C170.668 7.02831 172.32 6.35291 174.286 6.35291C175.545 6.35291 176.646 6.52175 177.512 6.94388V9.30778C176.646 8.71681 175.624 8.46353 174.522 8.46353C173.106 8.46353 171.926 8.97007 170.982 9.98318C170.117 10.9963 169.645 12.2627 169.645 13.9512C169.645 15.5552 170.038 16.8216 170.904 17.7503C171.769 18.679 172.87 19.1855 174.208 19.1855C175.466 19.1855 176.568 18.8478 177.512 18.2568V20.2831ZM180.029 20.874V6.52175H184.277C185.535 6.52175 186.558 6.85945 187.344 7.45042C188.131 8.0414 188.446 8.88565 188.446 9.81433C188.446 10.6586 188.21 11.334 187.816 11.925C187.423 12.5159 186.794 12.9381 186.007 13.1913C186.951 13.2758 187.659 13.6979 188.21 14.2889C188.76 14.8798 188.996 15.7241 188.996 16.6528C188.996 17.9191 188.524 18.8478 187.659 19.6076C186.794 20.3675 185.614 20.7052 184.277 20.7052H180.029V20.874ZM182.231 8.46353V12.5159H183.647C184.434 12.5159 184.985 12.3471 185.457 11.925C185.929 11.5028 186.086 10.9963 186.086 10.2365C186.086 8.97008 185.299 8.3791 183.805 8.3791H182.231V8.46353ZM182.231 14.4577V19.0167H184.119C184.906 19.0167 185.614 18.8478 186.007 18.4257C186.479 18.0036 186.715 17.4126 186.715 16.7372C186.715 15.2175 185.771 14.5421 183.805 14.5421H182.231V14.4577ZM199.065 20.874H191.592V6.52175H198.751V8.54795H193.795V12.6004H198.357V14.6266H193.795V18.8478H199.065V20.874ZM210 8.63238H206.145V20.9584H203.943V8.63238H200.088V6.60617H210V8.63238Z" fill="#EE2650"/>
<path d="M65.5052 38.8838H64.6605V35.4033H60.8447V38.8838H60V31.4985H60.8447V34.6456H64.6605V31.4985H65.5052V38.8838Z" fill="#171717" fill-opacity="0.55"/>
<path d="M72.0079 38.8838L71.1135 36.5399H68.2019L67.3126 38.8838H66.458L69.3 31.4682H70.0602L72.8823 38.8838H72.0079ZM70.8601 35.7771L70.0105 33.4484C69.9906 33.3878 69.9575 33.2884 69.9111 33.1503C69.8681 33.0123 69.8233 32.8691 69.777 32.721C69.7306 32.5728 69.6925 32.4532 69.6627 32.3623C69.6296 32.5004 69.5931 32.6385 69.5534 32.7765C69.5169 32.9112 69.4805 33.0375 69.4441 33.1554C69.4076 33.2699 69.3762 33.3676 69.3497 33.4484L68.4851 35.7771H70.8601Z" fill="#171717" fill-opacity="0.55"/>
<path d="M75.7381 31.4985C76.6755 31.4985 77.3595 31.6854 77.7901 32.0592C78.224 32.4297 78.441 32.9618 78.441 33.6555C78.441 33.9687 78.3896 34.2667 78.287 34.5496C78.1876 34.8291 78.0253 35.0766 77.8 35.2922C77.5748 35.5043 77.2783 35.6727 76.9107 35.7973C76.5463 35.9186 76.0991 35.9792 75.5691 35.9792H74.6847V38.8838H73.8401V31.4985H75.7381ZM75.6586 32.231H74.6847V35.2417H75.4747C75.9385 35.2417 76.3244 35.1911 76.6324 35.0901C76.9438 34.9891 77.1773 34.8258 77.333 34.6001C77.4887 34.3711 77.5665 34.068 77.5665 33.6909C77.5665 33.1992 77.4125 32.8338 77.1044 32.5947C76.7964 32.3522 76.3144 32.231 75.6586 32.231Z" fill="#171717" fill-opacity="0.55"/>
<path d="M85.1176 38.8838H84.094L80.7551 35.1356V38.8838H79.9105V31.4985H80.7551V35.075L84.0096 31.4985H84.9784L81.7638 35.0851L85.1176 38.8838Z" fill="#171717" fill-opacity="0.55"/>
<path d="M92.3705 35.181C92.3705 35.7502 92.2993 36.2688 92.1568 36.7369C92.0144 37.2016 91.8024 37.6024 91.5209 37.9392C91.2426 38.2726 90.8965 38.5302 90.4824 38.712C90.0684 38.8939 89.5881 38.9848 89.0415 38.9848C88.4784 38.9848 87.9865 38.8939 87.5659 38.712C87.1485 38.5302 86.8007 38.2709 86.5225 37.9341C86.2475 37.5973 86.0405 37.1949 85.9014 36.7268C85.7656 36.2587 85.6977 35.7401 85.6977 35.1709C85.6977 34.4166 85.8202 33.7548 86.0654 33.1857C86.3105 32.6166 86.6815 32.1737 87.1783 31.8572C87.6785 31.5406 88.3045 31.3823 89.0564 31.3823C89.7752 31.3823 90.3797 31.5389 90.87 31.8521C91.3635 32.1653 91.7362 32.6065 91.9879 33.1756C92.243 33.7414 92.3705 34.4099 92.3705 35.181ZM86.5871 35.181C86.5871 35.8074 86.6748 36.3496 86.8504 36.8076C87.026 37.2656 87.2943 37.6192 87.6553 37.8684C88.0197 38.1176 88.4818 38.2422 89.0415 38.2422C89.6046 38.2422 90.0651 38.1176 90.4228 37.8684C90.7839 37.6192 91.0505 37.2656 91.2227 36.8076C91.395 36.3496 91.4811 35.8074 91.4811 35.181C91.4811 34.228 91.284 33.4837 90.8899 32.9483C90.499 32.4095 89.8879 32.14 89.0564 32.14C88.4933 32.14 88.0296 32.263 87.6652 32.5088C87.3009 32.7546 87.0293 33.1049 86.8504 33.5595C86.6748 34.0108 86.5871 34.5513 86.5871 35.181Z" fill="#171717" fill-opacity="0.55"/>
<path d="M99.1067 38.8838H98.262V32.2562H95.9069C95.8606 32.6334 95.8109 33.0274 95.7579 33.4383C95.7049 33.8491 95.6502 34.2583 95.5939 34.6658C95.5376 35.0733 95.4813 35.4589 95.425 35.8226C95.3687 36.1863 95.3124 36.5096 95.256 36.7925C95.1699 37.2606 95.0623 37.6596 94.9331 37.9897C94.8072 38.3163 94.6383 38.5672 94.4263 38.7423C94.2176 38.9141 93.941 39 93.5965 39C93.4806 39 93.3647 38.9882 93.2487 38.9646C93.1361 38.941 93.0367 38.9124 92.9506 38.8787V38.1564C93.0268 38.19 93.1113 38.2187 93.204 38.2422C93.3001 38.2658 93.4011 38.2776 93.5071 38.2776C93.7158 38.2776 93.8797 38.1934 93.999 38.025C94.1216 37.8533 94.2176 37.6361 94.2872 37.3734C94.36 37.1107 94.423 36.8413 94.476 36.5652C94.519 36.3362 94.5687 36.0465 94.625 35.6963C94.6813 35.3461 94.741 34.9487 94.8039 34.5041C94.8668 34.0562 94.9314 33.578 94.9977 33.0695C95.0672 32.561 95.1351 32.0373 95.2014 31.4985H99.1067V38.8838Z" fill="#171717" fill-opacity="0.55"/>
<path d="M107.343 35.181C107.343 35.7502 107.272 36.2688 107.13 36.7369C106.987 37.2016 106.775 37.6024 106.494 37.9392C106.216 38.2726 105.869 38.5302 105.455 38.712C105.041 38.8939 104.561 38.9848 104.014 38.9848C103.451 38.9848 102.959 38.8939 102.539 38.712C102.121 38.5302 101.774 38.2709 101.495 37.9341C101.22 37.5973 101.013 37.1949 100.874 36.7268C100.739 36.2587 100.671 35.7401 100.671 35.1709C100.671 34.4166 100.793 33.7548 101.038 33.1857C101.283 32.6166 101.654 32.1737 102.151 31.8572C102.651 31.5406 103.277 31.3823 104.029 31.3823C104.748 31.3823 105.353 31.5389 105.843 31.8521C106.336 32.1653 106.709 32.6065 106.961 33.1756C107.216 33.7414 107.343 34.4099 107.343 35.181ZM101.56 35.181C101.56 35.8074 101.648 36.3496 101.823 36.8076C101.999 37.2656 102.267 37.6192 102.628 37.8684C102.993 38.1176 103.455 38.2422 104.014 38.2422C104.578 38.2422 105.038 38.1176 105.396 37.8684C105.757 37.6192 106.023 37.2656 106.196 36.8076C106.368 36.3496 106.454 35.8074 106.454 35.181C106.454 34.228 106.257 33.4837 105.863 32.9483C105.472 32.4095 104.861 32.14 104.029 32.14C103.466 32.14 103.003 32.263 102.638 32.5088C102.274 32.7546 102.002 33.1049 101.823 33.5595C101.648 34.0108 101.56 34.5513 101.56 35.181Z" fill="#171717" fill-opacity="0.55"/>
<path d="M112.991 31.4985V32.2663H109.757V38.8838H108.912V31.4985H112.991Z" fill="#171717" fill-opacity="0.55"/>
<path d="M114.168 31.4985H114.958V35.767C114.958 35.9287 114.956 36.1055 114.953 36.2974C114.95 36.486 114.945 36.6712 114.938 36.8531C114.931 37.0349 114.923 37.2 114.913 37.3481C114.907 37.4963 114.9 37.6108 114.893 37.6916H114.933L118.977 31.4985H119.907V38.8838H119.117V34.6658C119.117 34.4873 119.12 34.2987 119.126 34.1C119.133 33.898 119.14 33.7026 119.146 33.5141C119.156 33.3255 119.166 33.1571 119.176 33.0089C119.186 32.8574 119.193 32.7412 119.196 32.6604H119.151L115.102 38.8838H114.168V31.4985Z" fill="#171717" fill-opacity="0.55"/>
<path d="M126.901 38.8838H126.061V35.8226C125.674 35.964 125.306 36.0785 124.958 36.1661C124.611 36.2536 124.225 36.2974 123.801 36.2974C123.115 36.2974 122.588 36.1375 122.221 35.8175C121.856 35.4942 121.674 35.0312 121.674 34.4284V31.4985H122.519V34.3071C122.519 34.7146 122.625 35.0228 122.837 35.2316C123.052 35.437 123.402 35.5397 123.885 35.5397C124.293 35.5397 124.657 35.5027 124.978 35.4286C125.303 35.3511 125.664 35.2417 126.061 35.1002V31.4985H126.901V38.8838Z" fill="#171717" fill-opacity="0.55"/>
<path d="M132.887 38.8838H128.843V31.4985H132.887V32.2562H129.687V34.6456H132.703V35.3932H129.687V38.1261H132.887V38.8838Z" fill="#171717" fill-opacity="0.55"/>
<path d="M137.551 32.1502C137.151 32.1502 136.79 32.2209 136.468 32.3623C136.15 32.5004 135.879 32.7024 135.653 32.9685C135.431 33.2312 135.261 33.5494 135.142 33.9232C135.022 34.297 134.963 34.718 134.963 35.1861C134.963 35.8057 135.057 36.3446 135.246 36.8026C135.438 37.2572 135.723 37.6091 136.101 37.8583C136.481 38.1075 136.957 38.2321 137.527 38.2321C137.851 38.2321 138.156 38.2052 138.441 38.1513C138.729 38.0941 139.009 38.0233 139.28 37.9392V38.6868C139.015 38.7878 138.737 38.8619 138.446 38.909C138.154 38.9596 137.808 38.9848 137.407 38.9848C136.669 38.9848 136.051 38.8299 135.554 38.5201C135.06 38.2069 134.689 37.7657 134.441 37.1966C134.196 36.6275 134.073 35.9556 134.073 35.181C134.073 34.622 134.15 34.1118 134.302 33.6504C134.458 33.1857 134.683 32.785 134.978 32.4482C135.276 32.1114 135.64 31.8521 136.071 31.6703C136.505 31.485 137.002 31.3924 137.561 31.3924C137.929 31.3924 138.283 31.4295 138.625 31.5036C138.966 31.5776 139.274 31.6837 139.549 31.8218L139.211 32.5492C138.979 32.4415 138.724 32.3488 138.446 32.2714C138.171 32.1906 137.873 32.1502 137.551 32.1502Z" fill="#171717" fill-opacity="0.55"/>
<path d="M146.012 38.8838H144.988L141.649 35.1356V38.8838H140.805V31.4985H141.649V35.075L144.904 31.4985H145.873L142.658 35.0851L146.012 38.8838Z" fill="#171717" fill-opacity="0.55"/>
<path d="M151.521 38.8838L150.626 36.5399H147.715L146.825 38.8838H145.971L148.813 31.4682H149.573L152.395 38.8838H151.521ZM150.373 35.7771L149.523 33.4484C149.503 33.3878 149.47 33.2884 149.424 33.1503C149.381 33.0123 149.336 32.8691 149.29 32.721C149.243 32.5728 149.205 32.4532 149.175 32.3623C149.142 32.5004 149.106 32.6385 149.066 32.7765C149.03 32.9112 148.993 33.0375 148.957 33.1554C148.92 33.2699 148.889 33.3676 148.862 33.4484L147.998 35.7771H150.373Z" fill="#171717" fill-opacity="0.55"/>
<path d="M155.464 35.7973L153.576 38.8838H152.588L154.62 35.6407C154.355 35.5565 154.106 35.437 153.875 35.2821C153.646 35.1238 153.461 34.9066 153.318 34.6304C153.179 34.3543 153.109 34.0007 153.109 33.5696C153.109 32.8961 153.335 32.3825 153.785 32.0289C154.239 31.6753 154.913 31.4985 155.807 31.4985H157.8V38.8838H156.955V35.7973H155.464ZM156.955 32.231H155.837C155.436 32.231 155.097 32.2781 154.819 32.3724C154.544 32.4667 154.335 32.6149 154.193 32.8169C154.05 33.019 153.979 33.2834 153.979 33.61C153.979 34.0781 154.131 34.4385 154.436 34.6911C154.741 34.9403 155.206 35.0649 155.832 35.0649H156.955V32.231Z" fill="#171717" fill-opacity="0.55"/>
<path d="M167.541 38.8838H166.517L163.178 35.1356V38.8838H162.334V31.4985H163.178V35.075L166.433 31.4985H167.402L164.187 35.0851L167.541 38.8838Z" fill="#171717" fill-opacity="0.55"/>
<path d="M173.661 38.8838H172.816V32.2562H170.461C170.415 32.6334 170.365 33.0274 170.312 33.4383C170.259 33.8491 170.204 34.2583 170.148 34.6658C170.092 35.0733 170.035 35.4589 169.979 35.8226C169.923 36.1863 169.866 36.5096 169.81 36.7925C169.724 37.2606 169.616 37.6596 169.487 37.9897C169.361 38.3163 169.192 38.5672 168.98 38.7423C168.772 38.9141 168.495 39 168.151 39C168.035 39 167.919 38.9882 167.803 38.9646C167.69 38.941 167.591 38.9124 167.505 38.8787V38.1564C167.581 38.19 167.665 38.2187 167.758 38.2422C167.854 38.2658 167.955 38.2776 168.061 38.2776C168.27 38.2776 168.434 38.1934 168.553 38.025C168.676 37.8533 168.772 37.6361 168.841 37.3734C168.914 37.1107 168.977 36.8413 169.03 36.5652C169.073 36.3362 169.123 36.0465 169.179 35.6963C169.235 35.3461 169.295 34.9487 169.358 34.5041C169.421 34.0562 169.486 33.578 169.552 33.0695C169.621 32.561 169.689 32.0373 169.756 31.4985H173.661V38.8838Z" fill="#171717" fill-opacity="0.55"/>
<path d="M175.607 31.4985H176.397V35.767C176.397 35.9287 176.396 36.1055 176.392 36.2974C176.389 36.486 176.384 36.6712 176.377 36.8531C176.371 37.0349 176.363 37.2 176.353 37.3481C176.346 37.4963 176.339 37.6108 176.333 37.6916H176.372L180.417 31.4985H181.346V38.8838H180.556V34.6658C180.556 34.4873 180.559 34.2987 180.566 34.1C180.573 33.898 180.579 33.7026 180.586 33.5141C180.596 33.3255 180.606 33.1571 180.616 33.0089C180.626 32.8574 180.632 32.7412 180.636 32.6604H180.591L176.541 38.8838H175.607V31.4985Z" fill="#171717" fill-opacity="0.55"/>
<path d="M188.783 38.8838H187.938V35.4033H184.122V38.8838H183.278V31.4985H184.122V34.6456H187.938V31.4985H188.783V38.8838Z" fill="#171717" fill-opacity="0.55"/>
<path d="M190.739 31.4985H191.529V35.767C191.529 35.9287 191.528 36.1055 191.524 36.2974C191.521 36.486 191.516 36.6712 191.509 36.8531C191.503 37.0349 191.494 37.2 191.484 37.3481C191.478 37.4963 191.471 37.6108 191.465 37.6916H191.504L195.549 31.4985H196.478V38.8838H195.688V34.6658C195.688 34.4873 195.691 34.2987 195.698 34.1C195.704 33.898 195.711 33.7026 195.718 33.5141C195.728 33.3255 195.738 33.1571 195.748 33.0089C195.757 32.8574 195.764 32.7412 195.767 32.6604H195.723L191.673 38.8838H190.739V31.4985Z" fill="#171717" fill-opacity="0.55"/>
<path d="M203.617 38.8838H202.593L199.254 35.1356V38.8838H198.41V31.4985H199.254V35.075L202.509 31.4985H203.477L200.263 35.0851L203.617 38.8838Z" fill="#171717" fill-opacity="0.55"/>
<path d="M209.126 38.8838L208.231 36.5399H205.32L204.43 38.8838H203.576L206.418 31.4682H207.178L210 38.8838H209.126ZM207.978 35.7771L207.128 33.4484C207.108 33.3878 207.075 33.2884 207.029 33.1503C206.986 33.0123 206.941 32.8691 206.895 32.721C206.848 32.5728 206.81 32.4532 206.78 32.3623C206.747 32.5004 206.711 32.6385 206.671 32.7765C206.635 32.9112 206.598 33.0375 206.562 33.1554C206.525 33.2699 206.494 33.3676 206.467 33.4484L205.603 35.7771H207.978Z" fill="#171717" fill-opacity="0.55"/>
<defs>
<linearGradient id="paint0_linear_1042_7080" x1="-0.000644427" y1="30.8308" x2="22.3908" y2="30.8308" gradientUnits="userSpaceOnUse">
<stop offset="0.036" stop-color="#FCAF75"/>
<stop offset="0.267" stop-color="#FCB17A"/>
<stop offset="0.547" stop-color="#FBB589"/>
<stop offset="0.851" stop-color="#FABDA1"/>
<stop offset="1" stop-color="#F9C1B0"/>
</linearGradient>
<linearGradient id="paint1_linear_1042_7080" x1="6.43341" y1="22.9168" x2="8.75509" y2="22.9168" gradientUnits="userSpaceOnUse">
<stop offset="0.036" stop-color="#FCAF75"/>
<stop offset="0.267" stop-color="#FCB17A"/>
<stop offset="0.547" stop-color="#FBB589"/>
<stop offset="0.851" stop-color="#FABDA1"/>
<stop offset="1" stop-color="#F9C1B0"/>
</linearGradient>
<linearGradient id="paint2_linear_1042_7080" x1="3.69879" y1="20.3472" x2="6.28701" y2="20.3472" gradientUnits="userSpaceOnUse">
<stop offset="0.036" stop-color="#FCAF75"/>
<stop offset="0.267" stop-color="#FCB17A"/>
<stop offset="0.547" stop-color="#FBB589"/>
<stop offset="0.851" stop-color="#FABDA1"/>
<stop offset="1" stop-color="#F9C1B0"/>
</linearGradient>
<linearGradient id="paint3_linear_1042_7080" x1="8.91358" y1="25.0907" x2="10.9288" y2="25.0907" gradientUnits="userSpaceOnUse">
<stop offset="0.036" stop-color="#FCAF75"/>
<stop offset="0.267" stop-color="#FCB17A"/>
<stop offset="0.547" stop-color="#FBB589"/>
<stop offset="0.851" stop-color="#FABDA1"/>
<stop offset="1" stop-color="#F9C1B0"/>
</linearGradient>
<linearGradient id="paint4_linear_1042_7080" x1="43.3377" y1="19.9874" x2="26.0973" y2="39.7135" gradientUnits="userSpaceOnUse">
<stop offset="0.036" stop-color="#FCAF75"/>
<stop offset="0.267" stop-color="#FCB17A"/>
<stop offset="0.547" stop-color="#FBB589"/>
<stop offset="0.851" stop-color="#FABDA1"/>
<stop offset="1" stop-color="#F9C1B0"/>
</linearGradient>
<linearGradient id="paint5_linear_1042_7080" x1="44.028" y1="20.5911" x2="26.7879" y2="40.3172" gradientUnits="userSpaceOnUse">
<stop offset="0.036" stop-color="#FCAF75"/>
<stop offset="0.267" stop-color="#FCB17A"/>
<stop offset="0.547" stop-color="#FBB589"/>
<stop offset="0.851" stop-color="#FABDA1"/>
<stop offset="1" stop-color="#F9C1B0"/>
</linearGradient>
<linearGradient id="paint6_linear_1042_7080" x1="44.2917" y1="20.8199" x2="27.0516" y2="40.546" gradientUnits="userSpaceOnUse">
<stop offset="0.036" stop-color="#FCAF75"/>
<stop offset="0.267" stop-color="#FCB17A"/>
<stop offset="0.547" stop-color="#FBB589"/>
<stop offset="0.851" stop-color="#FABDA1"/>
<stop offset="1" stop-color="#F9C1B0"/>
</linearGradient>
<linearGradient id="paint7_linear_1042_7080" x1="43.6416" y1="20.2529" x2="26.4015" y2="39.979" gradientUnits="userSpaceOnUse">
<stop offset="0.036" stop-color="#FCAF75"/>
<stop offset="0.267" stop-color="#FCB17A"/>
<stop offset="0.547" stop-color="#FBB589"/>
<stop offset="0.851" stop-color="#FABDA1"/>
<stop offset="1" stop-color="#F9C1B0"/>
</linearGradient>
</defs>
</svg>
