<svg width="413" height="379" viewBox="0 0 413 379" fill="none" xmlns="http://www.w3.org/2000/svg">
<path fill-rule="evenodd" clip-rule="evenodd" d="M412.15 364.157C475.546 364.157 526.938 312.765 526.938 249.369C526.938 185.973 475.546 134.58 412.15 134.58C348.754 134.58 297.361 185.973 297.361 249.369C297.361 312.765 348.754 364.157 412.15 364.157ZM412.15 302.31C441.389 302.31 465.091 278.608 465.091 249.369C465.091 220.13 441.389 196.428 412.15 196.428C382.912 196.428 359.209 220.13 359.209 249.369C359.209 278.608 382.912 302.31 412.15 302.31Z" fill="#EDEDED"/>
<path d="M334.965 0H413.139L187.521 379H109.346L334.965 0Z" fill="#EDEDED"/>
<path fill-rule="evenodd" clip-rule="evenodd" d="M114.789 234.03C178.184 234.03 229.577 182.638 229.577 119.242C229.577 55.8457 178.184 4.45312 114.789 4.45312C51.3926 4.45312 0 55.8457 0 119.242C0 182.638 51.3926 234.03 114.789 234.03ZM114.788 172.183C144.027 172.183 167.73 148.48 167.73 119.242C167.73 90.003 144.027 66.3004 114.788 66.3004C85.5499 66.3004 61.8472 90.003 61.8472 119.242C61.8472 148.48 85.5499 172.183 114.788 172.183Z" fill="#EDEDED"/>
</svg>
