<svg width="210" height="332" viewBox="0 0 210 332" fill="none" xmlns="http://www.w3.org/2000/svg">
<path d="M150.22 332L0 40.6507L93.1941 -7.23726C130.799 -26.5605 162.112 -33.0158 187.134 -26.6033C212.428 -20.3309 231.949 -3.8649 245.694 22.7945C253.829 38.5726 257.931 55.2188 257.999 72.7331C258.068 90.2475 251.965 107.492 239.691 124.466C227.689 141.301 207.518 156.999 179.178 171.562L152.61 185.214L211.94 300.285L150.22 332ZM95.0082 305.141L74.6002 265.56L231.967 184.697L252.375 224.278L95.0082 305.141ZM58.1896 233.732L32.101 183.134L151.864 121.593L177.952 172.192L58.1896 233.732ZM146.959 124.114C158.676 118.093 168.127 111.688 175.312 104.899C182.357 97.8377 186.723 90.2606 188.41 82.1675C190.097 74.0743 188.696 65.6752 184.208 56.9701C177.756 44.4565 169.036 37.2376 158.048 35.3135C146.919 33.1174 132.908 36.3601 116.013 45.0415L87.8092 59.5339L126.521 134.616L146.959 124.114Z" fill="#EDEDED"/>
</svg>
