<svg width="448" height="362" viewBox="0 0 448 362" fill="none" xmlns="http://www.w3.org/2000/svg">
<g clip-path="url(#clip0_1194_8341)">
<path d="M267.622 13.9811H254.966V1.32581H242.851V13.9811H230.195V26.0969H242.851V38.7522H254.966V26.0969H267.622V13.9811Z" stroke="#007E7E" stroke-width="2.15977" stroke-linecap="round" stroke-linejoin="round"/>
<mask id="mask0_1194_8341" style="mask-type:luminance" maskUnits="userSpaceOnUse" x="-339" y="26" width="799" height="347">
<path d="M459.774 26.2021H-338.506V372.93H459.774V26.2021Z" fill="white"/>
</mask>
<g mask="url(#mask0_1194_8341)">
<path d="M274.994 305.751C274.994 305.751 280.244 360.445 277.85 377.05C268.584 380.538 243.286 380.113 243.286 380.113L239.217 308.298L274.996 305.751H274.994Z" fill="#FCEFF2" stroke="#007E7E" stroke-width="2.15977" stroke-linecap="round" stroke-linejoin="round"/>
<path d="M80.092 309.973C80.092 309.973 73.5345 363.477 74.1044 379.92C64.1388 384.023 34.3379 379.92 34.3379 379.92C34.3379 379.92 39.1539 326.228 46.3786 298.834C53.6034 271.442 80.092 309.971 80.092 309.971V309.973Z" fill="#FCEFF2" stroke="#007E7E" stroke-width="2.15977" stroke-linecap="round" stroke-linejoin="round"/>
<path d="M127.602 132.725C127.602 132.725 130.192 158.832 118.035 163.814C122.221 173.978 129.195 191.913 129.195 191.913L157.294 195.103L185.195 189.704L202.148 158.454C202.148 158.454 178.888 158.692 181.746 121.106C168.897 105.96 127.6 132.725 127.6 132.725H127.602Z" fill="#FCEFF2" stroke="#007E7E" stroke-width="2.15977" stroke-linecap="round" stroke-linejoin="round"/>
<path d="M115.048 92.0694C115.048 92.0694 107.649 88.6821 109.456 96.0553C111.262 103.429 115.048 112.995 115.048 112.995C115.048 112.995 125.836 153.786 150.919 152.655C181.809 151.259 184.358 107.814 184.358 107.814C184.358 107.814 200.942 77.7204 183.204 85.4927C184.358 76.7244 184.358 62.575 184.358 62.575L175.033 46.6313L157.097 39.4576H138.962L121.823 47.629L112.655 61.5789L112.056 81.1094L115.046 92.071L115.048 92.0694Z" fill="#FCEFF2" stroke="#007E7E" stroke-width="2.15977" stroke-linecap="round" stroke-linejoin="round"/>
<path d="M183.203 85.4928C183.289 84.8367 183.369 84.1471 183.442 83.4384L182.301 83.6985V93.131C182.301 93.131 184.357 101.037 184.357 107.814C184.357 107.814 200.941 77.7205 183.203 85.4928Z" fill="#FCEFF2" stroke="#007E7E" stroke-width="2.15977" stroke-linecap="round" stroke-linejoin="round"/>
<path d="M146.556 114.968C145.701 114.301 144.441 113.523 142.754 112.396C137.976 109.207 142.549 100.239 142.747 93.6625" stroke="#007E7E" stroke-width="2.15977" stroke-linecap="round" stroke-linejoin="round"/>
<path d="M122.643 171.205C122.643 171.205 150.53 198.112 192.371 167.952C197.489 174.817 191.398 208.97 191.398 208.97L156.551 250.973L137.285 244.05L127.044 200.704L122.643 171.205Z" fill="#007E7E" stroke="#007E7E" stroke-width="2.15977" stroke-linecap="round" stroke-linejoin="round"/>
<path d="M120.738 162.186C120.738 162.186 129.158 186.86 155.045 230.807C164.377 216.057 191.327 173.513 191.397 154.147C198.39 154.047 222.17 164.884 249.564 182.342C276.956 199.801 302.241 299.737 302.241 299.737C302.241 299.737 272.742 320.206 233.911 317.196C234.512 332.849 238.125 380.108 238.125 380.108L77.6844 382.216L83.4038 315.391C83.4038 315.391 53.6029 325.624 16.8789 289.504C21.3948 270.238 47.2226 164.912 120.738 162.184V162.186Z" fill="#FCEFF2" stroke="#007E7E" stroke-width="2.15977" stroke-linecap="round" stroke-linejoin="round"/>
<path d="M232.616 246.96C230.964 252.409 229.641 258.181 229.093 264.461C227.288 285.171 233.909 317.198 233.909 317.198" stroke="#007E7E" stroke-width="2.15977" stroke-linecap="round" stroke-linejoin="round"/>
<path d="M83.4049 315.392C83.4049 315.392 87.3174 288.3 83.4049 275.056C81.3297 268.032 78.4085 259.232 76.75 249.595" stroke="#007E7E" stroke-width="2.15977" stroke-linecap="round" stroke-linejoin="round"/>
<path d="M174.13 266.678C174.13 266.678 199.589 273.533 222.055 268.924C221.754 281.075 219.884 325.024 219.884 325.024C219.884 325.024 211.008 327.915 196.587 327.131C176.418 326.034 173.289 323.281 173.289 323.281L174.129 266.678H174.13Z" fill="#FCEFF2" stroke="#007E7E" stroke-width="2.15977" stroke-linecap="round" stroke-linejoin="round"/>
<path d="M155.092 230.483L143.784 252.858C143.692 253.03 143.511 253.14 143.317 253.143H143.307C143.114 253.143 142.935 253.041 142.839 252.874C126.532 224.878 105.766 179.212 101.52 165.436" stroke="#007E7E" stroke-width="2.15977" stroke-linecap="round" stroke-linejoin="round"/>
<path d="M211.855 161.126C200.239 197.17 169.673 252.31 169.364 252.863C169.268 253.035 169.087 253.142 168.889 253.142H143.303" stroke="#007E7E" stroke-width="2.15977" stroke-linecap="round" stroke-linejoin="round"/>
<path d="M221.317 283.709C216.305 284.946 208.025 285.404 202.346 285.404C186.108 285.404 174.676 282.087 174.457 282.035" stroke="#007E7E" stroke-width="2.15977" stroke-linecap="round" stroke-linejoin="round"/>
<path d="M84.947 298.802C48.4688 298.048 25.3212 275.421 21.6992 272.385" stroke="#007E7E" stroke-width="2.15977" stroke-linecap="round" stroke-linejoin="round"/>
<path d="M297.427 283.891C297.066 284.078 263.032 301.338 234.996 301.338C233.673 301.338 232.8 301.299 231.51 301.217" stroke="#007E7E" stroke-width="2.15977" stroke-linecap="round" stroke-linejoin="round"/>
<path d="M117.596 57.0311C115.837 60.9676 112.887 68.419 115.145 78.5777C117.402 88.7364 116.581 95.8399 116.254 98.5504C113.895 94.0345 109.644 86.757 108.52 75.9742C107.139 62.7139 108.78 38.2238 140.308 33.1668C171.814 28.1145 184.881 48.8247 187.63 59.0425C190.427 69.4358 189.975 81.6186 182.298 93.1326C180.4 87.8218 179.591 81.4622 180.534 77.1075C182.365 68.6584 180.954 56.2554 174.145 50.2023C170.909 47.3258 161.51 41.9894 157.175 46.1349C150.282 52.726 140.094 52.2216 132.041 47.0799C127.797 44.3695 120.422 50.7083 117.595 57.0343L117.596 57.0311Z" fill="#007E7E" stroke="#007E7E" stroke-width="2.15977" stroke-linecap="round" stroke-linejoin="round"/>
<path d="M133.938 121.714C141.197 124.137 161.971 121.353 162.862 118.732C159.491 128.655 147.014 138.743 133.938 121.714Z" fill="#FCEFF2" stroke="#007E7E" stroke-width="2.15977" stroke-linecap="round" stroke-linejoin="round"/>
<path d="M137.765 84.1726C133.902 82.621 129.784 84.112 126.095 85.4576C123.729 86.2925 121.357 86.8176 119.213 88.2623C119.102 88.3692 118.894 88.291 118.901 88.1298C119.014 86.0451 120.444 84.2716 121.972 82.9834C125.809 79.893 131.652 79.5322 136.064 81.5499C136.977 82.0001 137.797 82.5396 138.498 83.2995C138.71 83.5309 138.694 83.8901 138.463 84.1008C138.263 84.2876 137.994 84.278 137.767 84.171L137.765 84.1726Z" fill="#007E7E"/>
<path d="M154.015 81.8884C155.929 79.5163 159.032 78.5186 161.969 78.2233C165.905 77.8386 170.185 79.0597 172.685 82.2794C173.301 83.1127 173.832 84.0178 173.946 85.0761C173.955 85.1767 173.88 85.2645 173.78 85.2741C172.171 84.4663 170.584 83.9284 168.876 83.5645C167.307 83.2436 165.779 82.7727 164.221 82.4167C161.517 81.7032 158.628 81.3169 155.919 82.2443C155.507 82.372 155.075 82.5764 154.704 82.7535C154.181 83.0105 153.649 82.3417 154.016 81.8916L154.015 81.8884Z" fill="#007E7E"/>
<path d="M162.994 98.1304C161.86 98.1895 160.893 97.3179 160.834 96.1846L160.786 95.2811C160.727 94.1477 161.597 93.1804 162.732 93.1213C163.865 93.0622 164.833 93.9322 164.892 95.0672L164.94 95.9707C164.999 97.104 164.127 98.0714 162.994 98.1304Z" fill="#007E7E"/>
<path d="M131.117 99.623C129.983 99.682 129.016 98.8105 128.957 97.6771L128.909 96.7736C128.85 95.6403 129.722 94.6729 130.855 94.6139C131.988 94.5548 132.956 95.4248 133.015 96.5597L133.063 97.4632C133.122 98.5966 132.252 99.5639 131.117 99.623Z" fill="#007E7E"/>
<path d="M116.254 98.5503C116.717 103.211 114.09 105.773 115.045 112.995" stroke="#007E7E" stroke-width="2.15977" stroke-linecap="round" stroke-linejoin="round"/>
<path d="M288.5 110.166C271.621 98.9589 274.594 78.2903 287.054 58.5124C298.776 39.9061 320.029 29.7187 345.261 40.3515C370.048 33.0421 401.305 74.8982 395.697 112.388C388.276 162.001 426.245 148.847 406.108 203.25C389.789 247.339 326.05 178.872 326.05 178.872C326.05 178.872 300.599 182.811 290.743 163.584C280.302 143.214 312.215 125.91 288.5 110.168V110.166Z" fill="#FCEFF2" stroke="#007E7E" stroke-width="2.15977" stroke-linecap="round" stroke-linejoin="round"/>
<path d="M316.888 138.341C316.888 138.341 322.36 159.999 309.593 171.626C306.857 182.57 313.241 204.685 328.972 212.892C344.704 221.1 363.399 172.081 363.399 172.081V160.454C363.399 160.454 358.612 136.971 361.12 119.189C354.28 107.333 316.89 138.339 316.89 138.339L316.888 138.341Z" fill="#FCEFF2" stroke="#007E7E" stroke-width="2.15977" stroke-linecap="round" stroke-linejoin="round"/>
<path d="M375.083 89.9798C369.348 87.3986 365.333 93.7071 361.32 99.6884C361.475 97.2621 361.438 94.8868 361.248 92.5786L361.242 92.6041C361.242 92.6041 359.888 84.2093 348.767 75.8543C343.523 71.9163 340.982 68.1284 339.761 65.2247C331.328 70.5084 318.481 76.7642 302.666 78.841C299.922 82.6274 298.238 87.1512 298.238 92.5626C298.238 103.746 303.974 147.219 325.766 148.764C350.651 150.528 359.888 124.105 361.609 117.222C374.226 120.664 380.82 92.5626 375.086 89.9814L375.083 89.9798Z" fill="#FCEFF2" stroke="#007E7E" stroke-width="2.15977" stroke-linecap="round" stroke-linejoin="round"/>
<path d="M356.407 180.34C356.407 180.34 337.035 207.862 311.497 187.112C302.833 193.497 296.904 379.553 296.904 379.553L332.931 380.921L339.74 283.791L356.409 180.34H356.407Z" fill="#007E7E" stroke="#007E7E" stroke-width="2.15977" stroke-linecap="round" stroke-linejoin="round"/>
<path d="M317.446 92.8467C320.312 105.464 308.419 112.181 319.739 115.787" stroke="#007E7E" stroke-width="2.15977" stroke-linecap="round" stroke-linejoin="round"/>
<path d="M361.436 147.527C361.436 147.527 362.714 172.083 350.632 193.286C338.548 214.49 327.202 230.728 323.957 260.087C317.959 314.348 321.449 380.921 321.449 380.921H412.873C412.873 380.921 412.432 374.786 410.896 362.196C409.453 350.371 410.137 342.848 410.137 342.848C410.137 342.848 449.351 343.759 447.983 301.583C446.615 259.404 440.129 203.755 422.22 187.133C408.092 174.019 382.071 165.157 382.071 165.157C382.071 165.157 372.207 149.885 361.436 147.53V147.527Z" fill="#FCEFF2" stroke="#007E7E" stroke-width="2.15977" stroke-linecap="round" stroke-linejoin="round"/>
<path d="M317.96 152.03C317.96 152.03 315.166 170.471 315.294 212.209C315.42 253.353 312.916 344.443 312.916 344.443L310.052 379.553H253.51L260.122 346.039C260.122 346.039 240.743 320.277 236.411 304.545C232.078 288.814 239.603 255.072 245.074 224.066C250.546 193.06 255.21 184.563 267.999 177.14C278.928 170.796 303.667 162.965 303.667 162.965C303.667 162.965 309.455 152.501 317.96 152.034V152.03Z" fill="#FCEFF2" stroke="#007E7E" stroke-width="2.15977" stroke-linecap="round" stroke-linejoin="round"/>
<path d="M328.67 320.708L317.959 352.893L321.704 354.814L333.714 345.207L337.989 321.988L328.67 320.708Z" fill="#FCEFF2" stroke="#007E7E" stroke-width="2.15977" stroke-linecap="round" stroke-linejoin="round"/>
<path d="M333.474 320.708L321.705 354.814L381.031 342.324L349.448 336.337L346.077 321.988L333.474 320.708Z" fill="#007E7E" stroke="#007E7E" stroke-width="2.15977" stroke-linecap="round" stroke-linejoin="round"/>
<path d="M294.041 358.064L306.661 352.185L311.735 358.894L310.05 379.553H253.508L260.12 346.039C260.12 346.039 279.023 363.986 287.371 368.026C287.456 364.027 294.041 358.065 294.041 358.065V358.064Z" fill="#FCEFF2" stroke="#007E7E" stroke-width="2.15977" stroke-linecap="round" stroke-linejoin="round"/>
<path d="M301.685 355.987C301.685 355.987 295.1 369.792 287.37 368.025C279.639 366.259 281.353 350.491 281.353 350.491L286.115 347.948L301.685 355.987Z" fill="#FCEFF2" stroke="#007E7E" stroke-width="2.15977" stroke-linecap="round" stroke-linejoin="round"/>
<path opacity="0.1" d="M301.685 355.987C301.685 355.987 295.1 369.792 287.37 368.025C279.639 366.259 281.353 350.491 281.353 350.491L286.115 347.948L301.685 355.987Z" fill="#FCEFF2" stroke="#007E7E" stroke-width="2.15977" stroke-linecap="round" stroke-linejoin="round"/>
<path opacity="0.1" d="M301.685 355.987C301.685 355.987 295.1 369.792 287.37 368.025C279.639 366.259 281.353 350.491 281.353 350.491L286.115 347.948L301.685 355.987Z" fill="#FCEFF2" stroke="#007E7E" stroke-width="2.15977" stroke-linecap="round" stroke-linejoin="round"/>
<path opacity="0.1" d="M301.685 355.987C301.685 355.987 295.1 369.792 287.37 368.025C279.639 366.259 281.353 350.491 281.353 350.491L286.115 347.948L301.685 355.987Z" fill="#FCEFF2" stroke="#007E7E" stroke-width="2.15977" stroke-linecap="round" stroke-linejoin="round"/>
<path d="M301.685 355.987C301.685 355.987 295.1 369.792 287.37 368.025C279.639 366.259 281.353 350.491 281.353 350.491L286.115 347.948L301.685 355.987Z" fill="#FCEFF2" stroke="#007E7E" stroke-width="2.15977" stroke-linecap="round" stroke-linejoin="round"/>
<path d="M355.728 242.772L354.099 242.223C353.882 242.15 353.644 242.166 353.439 242.268C353.233 242.37 353.079 242.549 353.005 242.766C352.876 243.152 349.822 252.357 349.647 262.621C349.643 262.85 349.73 263.071 349.889 263.235C350.049 263.4 350.267 263.495 350.496 263.499L352.215 263.527C352.215 263.527 352.225 263.527 352.229 263.527C352.699 263.527 353.085 263.151 353.093 262.678C353.259 252.977 356.242 243.952 356.273 243.863C356.424 243.411 356.18 242.921 355.728 242.769V242.772Z" fill="#007E7E"/>
<path d="M373.544 233.217C361.869 230.582 355.058 240.167 354.99 240.265C354.86 240.453 354.809 240.686 354.85 240.911C354.89 241.136 355.019 241.337 355.208 241.467L356.622 242.447C357.015 242.718 357.553 242.621 357.824 242.23C358.044 241.91 363.341 234.456 372.786 236.58C377.849 237.722 381.441 243.047 381.441 244.487C381.441 244.964 381.827 245.35 382.304 245.35H384.024C384.501 245.35 384.887 244.964 384.887 244.487C384.887 241.427 380.21 234.719 373.544 233.219V233.217Z" fill="#007E7E"/>
<path d="M375.993 193.13C375.999 200.65 375.377 214.019 371.531 225.786L376.979 227.566C381.272 214.435 381.81 199.879 381.735 192.191" stroke="#007E7E" stroke-width="2.15977" stroke-linecap="round" stroke-linejoin="round"/>
<path d="M357.458 243.837C357.49 243.663 360.81 226.449 373.07 228.714C384.006 230.724 382.66 240.95 382.47 242.108L388.121 243.073C389.13 237.232 387.498 225.538 374.106 223.076C360.863 220.645 353.525 233.538 351.818 242.798L357.456 243.837H357.458Z" fill="#FCEFF2" stroke="#007E7E" stroke-width="2.15977" stroke-linecap="round" stroke-linejoin="round"/>
<path d="M359.378 328.938C359.378 328.938 355.851 338.746 346.075 335.778C336.301 332.811 343.189 309.784 343.189 309.784L359.378 328.938Z" fill="#FCEFF2" stroke="#007E7E" stroke-width="2.15977" stroke-linecap="round" stroke-linejoin="round"/>
<path opacity="0.1" d="M359.378 328.938C359.378 328.938 355.851 338.746 346.075 335.778C336.301 332.811 343.189 309.784 343.189 309.784L359.378 328.938Z" fill="#FCEFF2" stroke="#007E7E" stroke-width="2.15977" stroke-linecap="round" stroke-linejoin="round"/>
<path opacity="0.1" d="M359.378 328.938C359.378 328.938 355.851 338.746 346.075 335.778C336.301 332.811 343.189 309.784 343.189 309.784L359.378 328.938Z" fill="#FCEFF2" stroke="#007E7E" stroke-width="2.15977" stroke-linecap="round" stroke-linejoin="round"/>
<path d="M352.931 340.632C354.02 339.635 354.832 338.102 354.637 337.322L349.449 336.338L344.128 331.518C344.128 331.518 332.275 342.326 325.532 340.404C318.79 338.482 324.139 334.33 324.139 334.33L326.423 327.466C326.423 327.466 320.506 324.066 316.095 325.995C311.686 327.921 295.526 328.94 295.526 328.94C283.517 332.846 282.075 345.209 281.355 350.493C283.008 350.718 284.837 351.292 286.775 352.102C287.163 352.263 287.554 352.435 287.95 352.616C288.609 352.916 289.279 353.243 289.956 353.586C298.214 357.772 304.972 363.552 310.968 364.792C318.17 366.283 326.356 361.703 333.227 358.115C340.558 354.285 348.369 347.611 350.109 346.17C351.849 344.728 354.855 341.367 352.933 340.634L352.931 340.632Z" fill="#FCEFF2" stroke="#007E7E" stroke-width="2.15977" stroke-linecap="round" stroke-linejoin="round"/>
<path d="M359.378 328.938C359.378 328.938 355.851 338.746 346.075 335.778C336.301 332.811 343.189 309.784 343.189 309.784L359.378 328.938Z" fill="#FCEFF2" stroke="#007E7E" stroke-width="2.15977" stroke-linecap="round" stroke-linejoin="round"/>
<path d="M418.377 293.367L442.845 231.549C443.905 228.869 441.42 226.142 438.653 226.953L357.385 250.76C353.808 251.807 350.997 254.582 349.9 258.145L337.99 296.845L347.541 309.784L362.059 295.434C362.059 295.434 398.77 306.82 418.379 293.367H418.377Z" fill="#FCEFF2" stroke="#007E7E" stroke-width="2.15977" stroke-linecap="round" stroke-linejoin="round"/>
<path d="M420.944 294.963L445.411 233.145C446.471 230.465 443.986 227.739 441.22 228.55L359.951 252.357C356.374 253.404 353.563 256.178 352.466 259.741L340.557 298.441L350.107 311.381L364.625 297.032C364.625 297.032 401.337 308.418 420.945 294.964L420.944 294.963Z" fill="#007E7E" stroke="#007E7E" stroke-width="2.15977" stroke-linecap="round" stroke-linejoin="round"/>
<path d="M423.61 242.054L426.869 234.767L423.362 232.069C421.838 230.896 419.85 230.503 417.994 231.009L377.889 241.917C376.58 242.273 376.195 243.944 377.217 244.836L381.093 248.222L380.28 250.315C379.306 252.821 381.626 255.359 384.209 254.614L421.542 243.852C422.462 243.587 423.219 242.93 423.608 242.056L423.61 242.054Z" fill="#FCEFF2" stroke="#007E7E" stroke-width="2.15977" stroke-linecap="round" stroke-linejoin="round"/>
<path d="M426.873 234.767L381.096 248.221L380.284 250.313C379.31 252.819 381.629 255.356 384.212 254.612L421.547 243.85C422.467 243.585 423.222 242.929 423.613 242.054L426.873 234.767Z" fill="#FCEFF2" stroke="#007E7E" stroke-width="2.15977" stroke-linecap="round" stroke-linejoin="round"/>
<path d="M298.864 328.687C298.864 328.687 282.476 315.793 275.456 306.432C263.854 290.963 265.642 279.426 265.501 269.892C265.23 251.488 271.036 227.734 271.588 218.049" stroke="#007E7E" stroke-width="2.15977" stroke-linecap="round" stroke-linejoin="round"/>
<path d="M364.625 297.03C364.625 297.03 363.533 289.93 358.754 285.586C355.408 282.545 352.515 281.509 349.449 276.721C346.384 271.932 341.367 274.048 343.192 280.63C345.016 287.21 352.583 292.682 348.343 295.191C344.103 297.699 340.951 292.811 340.558 286.983C337.72 283.562 330.077 284.091 325.532 300.665C323.95 306.435 322.705 315.981 327.32 320.709C334.411 327.974 352.769 324.834 359.381 328.938C363.029 320.958 365.766 307.535 364.625 297.032V297.03Z" fill="#FCEFF2" stroke="#007E7E" stroke-width="2.15977" stroke-linecap="round" stroke-linejoin="round"/>
<path d="M296.705 193.163C292.471 209.744 291.4 223.087 291.135 229.188L285.992 228.965C286.268 222.586 287.4 208.521 291.919 191.107" stroke="#007E7E" stroke-width="2.15977" stroke-linecap="round" stroke-linejoin="round"/>
<path d="M298.193 236.174C298.856 231.196 295.358 226.622 290.38 225.959C285.401 225.295 280.827 228.793 280.164 233.772C279.501 238.75 282.999 243.324 287.977 243.987C292.956 244.651 297.529 241.153 298.193 236.174Z" fill="#FCEFF2" stroke="#007E7E" stroke-width="2.15977" stroke-linecap="round" stroke-linejoin="round"/>
<path d="M298.193 236.174C298.856 231.196 295.358 226.622 290.38 225.959C285.401 225.295 280.827 228.793 280.164 233.772C279.501 238.75 282.999 243.324 287.977 243.987C292.956 244.651 297.529 241.153 298.193 236.174Z" fill="#007E7E" stroke="#007E7E" stroke-width="2.15977" stroke-linecap="round" stroke-linejoin="round"/>
<path d="M295.618 235.841C296.282 230.863 292.784 226.289 287.805 225.626C282.827 224.962 278.253 228.46 277.59 233.439C276.926 238.417 280.425 242.991 285.403 243.654C290.381 244.318 294.955 240.82 295.618 235.841Z" fill="#FCEFF2" stroke="#007E7E" stroke-width="2.15977" stroke-linecap="round" stroke-linejoin="round"/>
<path d="M290.786 235.193C290.49 237.49 288.386 239.112 286.089 238.815C283.792 238.518 282.17 236.414 282.467 234.117C282.764 231.82 284.867 230.198 287.164 230.495C289.462 230.792 291.083 232.896 290.786 235.193Z" fill="#FCEFF2" stroke="#007E7E" stroke-width="2.15977" stroke-linecap="round" stroke-linejoin="round"/>
<path d="M310.802 104.332C311.937 104.332 312.858 103.411 312.858 102.276V101.371C312.858 100.236 311.939 99.3149 310.802 99.3149C309.667 99.3149 308.746 100.234 308.746 101.371V102.276C308.746 103.411 309.667 104.332 310.802 104.332Z" fill="#007E7E"/>
<path d="M336.083 103.124C337.218 103.124 338.139 102.203 338.139 101.068V100.162C338.139 99.0275 337.218 98.1064 336.083 98.1064C334.948 98.1064 334.027 99.0259 334.027 100.162V101.068C334.027 102.203 334.947 103.124 336.083 103.124Z" fill="#007E7E"/>
<path d="M314.058 90.1889C312.08 87.8456 308.49 86.7601 305.12 87.4864C302.316 88.093 299.803 89.8681 298.4 92.2306C298.21 92.5482 298.011 92.893 297.84 93.2634C297.766 93.4246 297.798 93.6145 297.921 93.7422C298.004 93.8284 298.118 93.8747 298.232 93.8747C298.287 93.8747 298.343 93.8636 298.395 93.8428C298.996 93.597 299.535 93.3272 300.057 93.0654C300.485 92.8499 300.89 92.6472 301.345 92.4477C302.163 92.047 303.122 91.6623 304.053 91.359C306.82 90.3964 309.782 90.2528 313.656 90.8945C313.835 90.9232 314.012 90.8386 314.101 90.6822C314.191 90.5241 314.173 90.3278 314.055 90.1905L314.058 90.1889Z" fill="#007E7E"/>
<path d="M348.219 92.6872C346.056 89.1322 342.519 86.5447 338.517 85.5885C334.834 84.7089 329.819 85.3969 326.914 88.9199C326.789 89.07 326.781 89.2855 326.894 89.4451C327.008 89.6047 327.214 89.6686 327.396 89.6015C332.266 87.8185 337.535 88.2016 342.645 90.7189C343.762 91.2313 344.857 91.8156 346.015 92.4333C346.551 92.7191 347.095 93.0096 347.652 93.2985C347.715 93.3304 347.783 93.3464 347.85 93.3464C347.967 93.3464 348.082 93.2985 348.166 93.2091C348.299 93.0671 348.32 92.8548 348.219 92.6903V92.6872Z" fill="#007E7E"/>
<path d="M312.436 122.558C312.436 122.558 322.257 124.177 334.895 121.43C331.371 128.479 326.855 129.417 322.77 129.194C317.413 128.902 312.436 122.557 312.436 122.557V122.558Z" fill="#FCEFF2" stroke="#007E7E" stroke-width="2.15977" stroke-linecap="round" stroke-linejoin="round"/>
<path d="M303.665 162.963C296.707 173.286 289.221 189.921 289.221 189.921L303.665 195.594L296.902 206.395L314.934 252.855" stroke="#007E7E" stroke-width="2.15977" stroke-linecap="round" stroke-linejoin="round"/>
<path d="M382.071 165.154C386.719 173.856 388.365 191.109 388.365 191.109L360.907 195.595L365.407 209.639C365.407 209.639 329.095 242.34 324.959 254.743" stroke="#007E7E" stroke-width="2.15977" stroke-linecap="round" stroke-linejoin="round"/>
<path d="M381.031 342.324C381.031 342.324 393.109 344.278 411.38 342.824" stroke="#007E7E" stroke-width="2.15977" stroke-linecap="round" stroke-linejoin="round"/>
</g>
</g>
<defs>
<clipPath id="clip0_1194_8341">
<rect width="448" height="362" fill="white"/>
</clipPath>
</defs>
</svg>
