<svg width="60" height="60" viewBox="0 0 60 60" fill="none" xmlns="http://www.w3.org/2000/svg">
<rect x="1" y="1" width="50.1739" height="50.1739" rx="12.0435" stroke="#D31D44" stroke-width="2"/>
<rect x="7.82617" y="7.82605" width="52.1739" height="52.1739" rx="8" fill="#D90834" fill-opacity="0.01"/>
<rect x="8.47835" y="8.47822" width="50.8696" height="50.8696" rx="7.34783" stroke="#D90834" stroke-opacity="0.1" stroke-width="1.30435"/>
<path d="M31.9568 45.7018H25.5655C24.835 45.7018 24.4697 45.7018 24.1907 45.5575C23.9453 45.4306 23.7457 45.2282 23.6207 44.979C23.4785 44.6959 23.4785 44.3252 23.4785 43.5837V41.3121C23.4785 40.4707 23.4785 40.0499 23.5411 39.6991C23.8318 38.0691 25.0886 36.7936 26.6945 36.4986C26.7948 36.4802 26.9007 36.4671 27.0208 36.4578C27.3143 36.435 27.4611 36.4236 27.6571 36.4385C27.8609 36.4539 27.9749 36.4743 28.1715 36.5306C28.3607 36.5847 28.7015 36.7415 29.3831 37.0548C29.7889 37.2414 30.2132 37.3939 30.6524 37.5086M37.8263 27.1682C37.8263 30.0927 35.4904 32.4635 32.6089 32.4635C29.7275 32.4635 27.3916 30.0927 27.3916 27.1682C27.3916 24.2437 29.7275 21.8729 32.6089 21.8729C35.4904 21.8729 37.8263 24.2437 37.8263 27.1682ZM39.7797 39.3632C38.8669 38.3318 37.3449 38.0543 36.2012 38.9989C35.0577 39.9433 34.8966 41.5225 35.7948 42.6395C36.3018 43.2702 37.5065 44.3758 38.4595 45.219C38.9114 45.619 39.1373 45.819 39.4107 45.9008C39.6438 45.9706 39.9156 45.9706 40.1487 45.9008C40.4221 45.819 40.648 45.619 41.1 45.219C42.0529 44.3758 43.2576 43.2702 43.7646 42.6395C44.6628 41.5225 44.5214 39.9334 43.3582 38.9989C42.1949 38.0643 40.6925 38.3318 39.7797 39.3632Z" stroke="#D31D44" stroke-width="2" stroke-linecap="round" stroke-linejoin="round"/>
</svg>
