<svg width="60" height="60" viewBox="0 0 60 60" fill="none" xmlns="http://www.w3.org/2000/svg">
<rect x="0.978261" y="0.978261" width="50.2174" height="50.2174" rx="12.0652" stroke="#D31D44" stroke-width="1.95652"/>
<rect x="7.82617" y="7.82611" width="52.1739" height="52.1739" rx="7.82609" fill="#D90834" fill-opacity="0.01"/>
<rect x="8.47835" y="8.47828" width="50.8696" height="50.8696" rx="7.17391" stroke="#D90834" stroke-opacity="0.1" stroke-width="1.30435"/>
<path d="M30.0003 33.9424L32.609 36.5775L37.8263 31.3073M44.3481 33.9424C44.3481 39.8202 37.2263 44.0794 34.7499 45.3828C34.4821 45.5238 34.3482 45.5943 34.1624 45.6308C34.0176 45.6593 33.809 45.6593 33.6642 45.6308C33.4784 45.5943 33.3445 45.5238 33.0767 45.3828C30.6002 44.0794 23.4785 39.8202 23.4785 33.9424V28.9588C23.4785 27.9054 23.4785 27.3787 23.6491 26.926C23.7997 26.526 24.0446 26.1691 24.3624 25.8862C24.7222 25.5659 25.2104 25.3809 26.1869 25.0111L33.1805 22.3619C33.4517 22.2592 33.5872 22.2078 33.7268 22.1874C33.8504 22.1694 33.9762 22.1694 34.0998 22.1874C34.2394 22.2078 34.3749 22.2592 34.6461 22.3619L41.6397 25.0111C42.6162 25.3809 43.1044 25.5659 43.4641 25.8862C43.782 26.1691 44.0268 26.526 44.1775 26.926C44.3481 27.3787 44.3481 27.9054 44.3481 28.9588V33.9424Z" stroke="#D31D44" stroke-width="1.95652" stroke-linecap="round" stroke-linejoin="round"/>
</svg>
