<svg width="60" height="60" viewBox="0 0 60 60" fill="none" xmlns="http://www.w3.org/2000/svg">
<rect x="0.978261" y="0.978261" width="50.2174" height="50.2174" rx="12.0652" stroke="#D31D44" stroke-width="1.95652"/>
<rect x="7.82617" y="7.82611" width="52.1739" height="52.1739" rx="7.82609" fill="#D90834" fill-opacity="0.01"/>
<rect x="8.47835" y="8.47828" width="50.8696" height="50.8696" rx="7.17391" stroke="#D90834" stroke-opacity="0.1" stroke-width="1.30435"/>
<path d="M37.5819 41.3044H30.245M36.3591 26.5218H31.4678M43.6961 22.8261H42.4733M42.4733 22.8261H25.3537M42.4733 22.8261C42.4733 25.9184 40.9908 28.8204 38.4931 30.6177L33.9135 33.9131M25.3537 22.8261H24.1309M25.3537 22.8261C25.3537 25.9184 26.8361 28.8204 29.3339 30.6177L33.9135 33.9131M33.9135 33.9131L38.4931 37.2084C40.9908 39.0058 42.4733 41.9077 42.4733 45M33.9135 33.9131L29.3339 37.2084C26.8361 39.0058 25.3537 41.9077 25.3537 45M43.6961 45H42.4733M42.4733 45H25.3537M25.3537 45H24.1309" stroke="#D31D44" stroke-width="1.95652" stroke-linecap="round" stroke-linejoin="round"/>
</svg>
